# MagicaVoxel @ Ephtracy

# group
g fireplace

# material
mtllib fireplace.mtl
usemtl palette

# normals
vn -1 0 0
vn 1 0 0
vn 0 0 1
vn 0 0 -1
vn 0 -1 0
vn 0 1 0

# texcoords
vt 0.373047 0.5
vt 0.537109 0.5
vt 0.865234 0.5
vt 0.869141 0.5
vt 0.994141 0.5

# verts
v -7 0 8
v -7 0 -7
v -7 7 8
v -7 7 -7
v -6 0 -7
v -6 0 -20
v -6 1 -9
v -6 1 -20
v -6 6 -7
v -6 6 -9
v -5 6 8
v -5 6 -3
v -5 7 8
v -5 7 -3
v -4 6 -4
v -4 6 -6
v -4 7 -4
v -4 7 -6
v 6 1 -2
v 6 1 -4
v 6 2 7
v 6 2 -2
v 6 2 -4
v 6 2 -5
v 6 6 7
v 6 6 -3
v 6 7 -3
v 6 7 -5
v 7 6 8
v 7 6 -3
v 7 7 8
v 7 7 -3
v 8 4 -7
v 8 4 -9
v 8 6 -7
v 8 6 -9
v 9 6 8
v 9 6 -3
v 9 6 -4
v 9 6 -6
v 9 7 8
v 9 7 -3
v 9 7 -4
v 9 7 -6
v -6 6 8
v -6 6 -3
v -6 6 -4
v -6 6 -6
v -6 7 8
v -6 7 -3
v -6 7 -4
v -6 7 -6
v -5 4 -7
v -5 4 -9
v -5 6 -7
v -5 6 -9
v -4 6 8
v -4 6 -3
v -4 7 8
v -4 7 -3
v -3 1 -2
v -3 1 -4
v -3 2 7
v -3 2 -2
v -3 2 -4
v -3 2 -5
v -3 6 7
v -3 6 -3
v -3 7 -3
v -3 7 -5
v 7 6 -4
v 7 6 -6
v 7 7 -4
v 7 7 -6
v 8 6 8
v 8 6 -3
v 8 7 8
v 8 7 -3
v 9 0 -7
v 9 0 -20
v 9 1 -9
v 9 1 -20
v 9 6 -7
v 9 6 -9
v 10 0 8
v 10 0 -7
v 10 7 8
v 10 7 -7
v -7 0 8
v -7 7 8
v -6 6 8
v -6 7 8
v -5 6 8
v -5 7 8
v -4 6 8
v -4 7 8
v -3 1 8
v -3 2 8
v -3 6 8
v -2 4 8
v -2 5 8
v -1 3 8
v -1 4 8
v -1 5 8
v 0 3 8
v 0 4 8
v 0 5 8
v 1 3 8
v 1 4 8
v 1 5 8
v 2 3 8
v 2 4 8
v 2 5 8
v 3 3 8
v 3 4 8
v 3 5 8
v 4 3 8
v 4 4 8
v 4 5 8
v 5 4 8
v 5 5 8
v 6 1 8
v 6 2 8
v 6 6 8
v 7 6 8
v 7 7 8
v 8 6 8
v 8 7 8
v 9 6 8
v 9 7 8
v 10 0 8
v 10 7 8
v -6 6 -3
v -6 7 -3
v -5 6 -3
v -5 7 -3
v -4 6 -3
v -4 7 -3
v -3 6 -3
v -3 7 -3
v 6 6 -3
v 6 7 -3
v 7 6 -3
v 7 7 -3
v 8 6 -3
v 8 7 -3
v 9 6 -3
v 9 7 -3
v -3 1 -4
v -3 2 -4
v 6 1 -4
v 6 2 -4
v -3 2 -5
v -3 7 -5
v 6 2 -5
v 6 7 -5
v -6 6 -6
v -6 7 -6
v -4 6 -6
v -4 7 -6
v 7 6 -6
v 7 7 -6
v 9 6 -6
v 9 7 -6
v -3 2 7
v -3 6 7
v -2 4 7
v -2 5 7
v -1 3 7
v -1 4 7
v -1 5 7
v 0 3 7
v 0 4 7
v 0 5 7
v 1 3 7
v 1 4 7
v 1 5 7
v 2 3 7
v 2 4 7
v 2 5 7
v 3 3 7
v 3 4 7
v 3 5 7
v 4 3 7
v 4 4 7
v 4 5 7
v 5 4 7
v 5 5 7
v 6 2 7
v 6 6 7
v -3 1 -2
v -3 2 -2
v 6 1 -2
v 6 2 -2
v -6 6 -4
v -6 7 -4
v -4 6 -4
v -4 7 -4
v 7 6 -4
v 7 7 -4
v 9 6 -4
v 9 7 -4
v -7 0 -7
v -7 7 -7
v -6 0 -7
v -6 6 -7
v -5 4 -7
v -5 6 -7
v 8 4 -7
v 8 6 -7
v 9 0 -7
v 9 6 -7
v 10 0 -7
v 10 7 -7
v -6 1 -9
v -6 6 -9
v -5 1 -9
v -5 4 -9
v -5 6 -9
v 8 1 -9
v 8 4 -9
v 8 6 -9
v 9 1 -9
v 9 6 -9
v -6 0 -20
v -6 1 -20
v 9 0 -20
v 9 1 -20
v -7 0 8
v 10 0 8
v -3 0 -2
v 6 0 -2
v -3 0 -4
v 6 0 -4
v -7 0 -7
v -6 0 -7
v 9 0 -7
v 10 0 -7
v -5 0 -9
v 8 0 -9
v -4 0 -10
v 7 0 -10
v -4 0 -18
v 7 0 -18
v -5 0 -19
v 8 0 -19
v -6 0 -20
v 9 0 -20
v -3 1 -2
v 6 1 -2
v -3 1 -4
v 6 1 -4
v -6 1 -9
v -5 1 -9
v 8 1 -9
v 9 1 -9
v -4 1 -10
v 7 1 -10
v -4 1 -18
v 7 1 -18
v -5 1 -19
v 8 1 -19
v -6 1 -20
v 9 1 -20
v -3 2 7
v 6 2 7
v -3 2 -2
v 6 2 -2
v -3 2 -4
v 6 2 -4
v -3 2 -5
v 6 2 -5
v -5 4 -7
v 8 4 -7
v -5 4 -9
v 8 4 -9
v -6 6 8
v -5 6 8
v -4 6 8
v -3 6 8
v 6 6 8
v 7 6 8
v 8 6 8
v 9 6 8
v -3 6 7
v 6 6 7
v -6 6 -3
v -5 6 -3
v -4 6 -3
v -3 6 -3
v 6 6 -3
v 7 6 -3
v 8 6 -3
v 9 6 -3
v -6 6 -4
v -4 6 -4
v 7 6 -4
v 9 6 -4
v -6 6 -6
v -4 6 -6
v 7 6 -6
v 9 6 -6
v -6 6 -7
v -5 6 -7
v 8 6 -7
v 9 6 -7
v -6 6 -9
v -5 6 -9
v 8 6 -9
v 9 6 -9
v -7 7 8
v -6 7 8
v -5 7 8
v -4 7 8
v 7 7 8
v 8 7 8
v 9 7 8
v 10 7 8
v -6 7 -3
v -5 7 -3
v -4 7 -3
v -3 7 -3
v 6 7 -3
v 7 7 -3
v 8 7 -3
v 9 7 -3
v -6 7 -4
v -4 7 -4
v 7 7 -4
v 9 7 -4
v -3 7 -5
v 6 7 -5
v -6 7 -6
v -4 7 -6
v 7 7 -6
v 9 7 -6
v -7 7 -7
v 10 7 -7

# faces
f 3/2/1 2/2/1 1/2/1
f 4/2/1 2/2/1 3/2/1
f 7/2/1 6/2/1 5/2/1
f 8/2/1 6/2/1 7/2/1
f 9/2/1 7/2/1 5/2/1
f 10/2/1 7/2/1 9/2/1
f 13/2/1 12/2/1 11/2/1
f 14/2/1 12/2/1 13/2/1
f 17/2/1 16/2/1 15/2/1
f 18/2/1 16/2/1 17/2/1
f 22/2/1 20/2/1 19/2/1
f 23/2/1 20/2/1 22/2/1
f 25/2/1 22/2/1 21/2/1
f 25/2/1 24/2/1 23/2/1
f 25/2/1 23/2/1 22/2/1
f 26/2/1 24/2/1 25/2/1
f 27/2/1 24/2/1 26/2/1
f 28/2/1 24/2/1 27/2/1
f 31/2/1 30/2/1 29/2/1
f 32/2/1 30/2/1 31/2/1
f 35/2/1 34/2/1 33/2/1
f 36/2/1 34/2/1 35/2/1
f 41/2/1 38/2/1 37/2/1
f 42/2/1 38/2/1 41/2/1
f 43/2/1 40/2/1 39/2/1
f 44/2/1 40/2/1 43/2/1
f 45/2/2 46/2/2 49/2/2
f 49/2/2 46/2/2 50/2/2
f 47/2/2 48/2/2 51/2/2
f 51/2/2 48/2/2 52/2/2
f 53/2/2 54/2/2 55/2/2
f 55/2/2 54/2/2 56/2/2
f 57/2/2 58/2/2 59/2/2
f 59/2/2 58/2/2 60/2/2
f 61/2/2 62/2/2 64/2/2
f 64/2/2 62/2/2 65/2/2
f 63/2/2 64/2/2 67/2/2
f 65/2/2 66/2/2 67/2/2
f 64/2/2 65/2/2 67/2/2
f 67/2/2 66/2/2 68/2/2
f 68/2/2 66/2/2 69/2/2
f 69/2/2 66/2/2 70/2/2
f 71/2/2 72/2/2 73/2/2
f 73/2/2 72/2/2 74/2/2
f 75/2/2 76/2/2 77/2/2
f 77/2/2 76/2/2 78/2/2
f 79/2/2 80/2/2 81/2/2
f 81/2/2 80/2/2 82/2/2
f 79/2/2 81/2/2 83/2/2
f 83/2/2 81/2/2 84/2/2
f 85/2/2 86/2/2 87/2/2
f 87/2/2 86/2/2 88/2/2
f 91/2/3 90/2/3 89/2/3
f 92/2/3 90/2/3 91/2/3
f 93/2/3 91/2/3 89/2/3
f 95/2/3 93/2/3 89/2/3
f 95/2/3 94/2/3 93/2/3
f 96/2/3 94/2/3 95/2/3
f 97/2/3 95/2/3 89/2/3
f 98/2/3 95/2/3 97/2/3
f 99/2/3 95/2/3 98/2/3
f 100/4/3 99/4/3 98/4/3
f 101/4/3 99/4/3 100/4/3
f 102/4/3 100/4/3 98/4/3
f 103/3/3 101/3/3 100/3/3
f 103/4/3 100/4/3 102/4/3
f 104/4/3 99/4/3 101/4/3
f 104/3/3 101/3/3 103/3/3
f 105/3/3 103/3/3 102/3/3
f 105/4/3 102/4/3 98/4/3
f 106/4/3 104/4/3 103/4/3
f 106/3/3 103/3/3 105/3/3
f 107/4/3 99/4/3 104/4/3
f 107/4/3 104/4/3 106/4/3
f 108/4/3 106/4/3 105/4/3
f 108/4/3 105/4/3 98/4/3
f 109/3/3 107/3/3 106/3/3
f 109/4/3 106/4/3 108/4/3
f 110/4/3 99/4/3 107/4/3
f 110/3/3 107/3/3 109/3/3
f 111/3/3 109/3/3 108/3/3
f 111/4/3 108/4/3 98/4/3
f 112/4/3 110/4/3 109/4/3
f 112/3/3 109/3/3 111/3/3
f 113/4/3 99/4/3 110/4/3
f 113/4/3 110/4/3 112/4/3
f 114/4/3 112/4/3 111/4/3
f 114/4/3 111/4/3 98/4/3
f 115/3/3 113/3/3 112/3/3
f 115/4/3 112/4/3 114/4/3
f 116/4/3 99/4/3 113/4/3
f 116/3/3 113/3/3 115/3/3
f 117/3/3 115/3/3 114/3/3
f 117/4/3 114/4/3 98/4/3
f 118/4/3 116/4/3 115/4/3
f 118/3/3 115/3/3 117/3/3
f 119/4/3 99/4/3 116/4/3
f 119/4/3 116/4/3 118/4/3
f 120/4/3 118/4/3 117/4/3
f 120/3/3 119/3/3 118/3/3
f 121/4/3 99/4/3 119/4/3
f 121/3/3 119/3/3 120/3/3
f 122/2/3 97/2/3 89/2/3
f 122/5/3 98/5/3 97/5/3
f 123/4/3 121/4/3 120/4/3
f 123/5/3 98/5/3 122/5/3
f 123/4/3 120/4/3 117/4/3
f 123/4/3 117/4/3 98/4/3
f 124/4/3 99/4/3 121/4/3
f 124/4/3 121/4/3 123/4/3
f 125/2/3 123/2/3 122/2/3
f 125/2/3 124/2/3 123/2/3
f 127/2/3 125/2/3 122/2/3
f 127/2/3 126/2/3 125/2/3
f 128/2/3 126/2/3 127/2/3
f 129/2/3 127/2/3 122/2/3
f 131/2/3 122/2/3 89/2/3
f 131/2/3 130/2/3 129/2/3
f 131/2/3 129/2/3 122/2/3
f 132/2/3 130/2/3 131/2/3
f 135/2/3 134/2/3 133/2/3
f 136/2/3 134/2/3 135/2/3
f 139/2/3 138/2/3 137/2/3
f 140/2/3 138/2/3 139/2/3
f 143/2/3 142/2/3 141/2/3
f 144/2/3 142/2/3 143/2/3
f 147/2/3 146/2/3 145/2/3
f 148/2/3 146/2/3 147/2/3
f 151/2/3 150/2/3 149/2/3
f 152/2/3 150/2/3 151/2/3
f 155/2/3 154/2/3 153/2/3
f 156/2/3 154/2/3 155/2/3
f 159/2/3 158/2/3 157/2/3
f 160/2/3 158/2/3 159/2/3
f 163/2/3 162/2/3 161/2/3
f 164/2/3 162/2/3 163/2/3
f 165/4/4 166/4/4 167/4/4
f 167/4/4 166/4/4 168/4/4
f 165/4/4 167/4/4 169/4/4
f 167/3/4 168/3/4 170/3/4
f 169/4/4 167/4/4 170/4/4
f 168/4/4 166/4/4 171/4/4
f 170/3/4 168/3/4 171/3/4
f 169/3/4 170/3/4 172/3/4
f 165/4/4 169/4/4 172/4/4
f 170/4/4 171/4/4 173/4/4
f 172/3/4 170/3/4 173/3/4
f 171/4/4 166/4/4 174/4/4
f 173/4/4 171/4/4 174/4/4
f 172/4/4 173/4/4 175/4/4
f 165/4/4 172/4/4 175/4/4
f 173/3/4 174/3/4 176/3/4
f 175/4/4 173/4/4 176/4/4
f 174/4/4 166/4/4 177/4/4
f 176/3/4 174/3/4 177/3/4
f 175/3/4 176/3/4 178/3/4
f 165/4/4 175/4/4 178/4/4
f 176/4/4 177/4/4 179/4/4
f 178/3/4 176/3/4 179/3/4
f 177/4/4 166/4/4 180/4/4
f 179/4/4 177/4/4 180/4/4
f 178/4/4 179/4/4 181/4/4
f 165/4/4 178/4/4 181/4/4
f 179/3/4 180/3/4 182/3/4
f 181/4/4 179/4/4 182/4/4
f 180/4/4 166/4/4 183/4/4
f 182/3/4 180/3/4 183/3/4
f 181/3/4 182/3/4 184/3/4
f 165/4/4 181/4/4 184/4/4
f 182/4/4 183/4/4 185/4/4
f 184/3/4 182/3/4 185/3/4
f 183/4/4 166/4/4 186/4/4
f 185/4/4 183/4/4 186/4/4
f 184/4/4 185/4/4 187/4/4
f 185/3/4 186/3/4 187/3/4
f 186/4/4 166/4/4 188/4/4
f 187/3/4 186/3/4 188/3/4
f 184/4/4 187/4/4 189/4/4
f 165/4/4 184/4/4 189/4/4
f 187/4/4 188/4/4 189/4/4
f 188/4/4 166/4/4 190/4/4
f 189/4/4 188/4/4 190/4/4
f 191/5/4 192/5/4 193/5/4
f 193/5/4 192/5/4 194/5/4
f 195/2/4 196/2/4 197/2/4
f 197/2/4 196/2/4 198/2/4
f 199/2/4 200/2/4 201/2/4
f 201/2/4 200/2/4 202/2/4
f 203/2/4 204/2/4 205/2/4
f 205/2/4 204/2/4 206/2/4
f 206/2/4 204/2/4 208/2/4
f 207/2/4 208/2/4 209/2/4
f 208/2/4 204/2/4 210/2/4
f 209/2/4 208/2/4 210/2/4
f 210/2/4 204/2/4 212/2/4
f 211/2/4 212/2/4 213/2/4
f 212/2/4 204/2/4 214/2/4
f 213/2/4 212/2/4 214/2/4
f 215/2/4 216/2/4 217/2/4
f 217/2/4 216/2/4 218/2/4
f 218/2/4 216/2/4 219/2/4
f 217/2/4 218/2/4 220/2/4
f 220/2/4 218/2/4 221/2/4
f 220/2/4 221/2/4 223/2/4
f 221/2/4 222/2/4 223/2/4
f 223/2/4 222/2/4 224/2/4
f 225/2/4 226/2/4 227/2/4
f 227/2/4 226/2/4 228/2/4
f 231/2/5 230/2/5 229/2/5
f 232/2/5 230/2/5 231/2/5
f 233/2/5 231/2/5 229/2/5
f 233/5/5 232/5/5 231/5/5
f 234/2/5 230/2/5 232/2/5
f 234/5/5 232/5/5 233/5/5
f 235/2/5 233/2/5 229/2/5
f 235/2/5 234/2/5 233/2/5
f 236/2/5 234/2/5 235/2/5
f 237/2/5 230/2/5 234/2/5
f 237/2/5 234/2/5 236/2/5
f 238/2/5 230/2/5 237/2/5
f 239/2/5 237/2/5 236/2/5
f 240/2/5 237/2/5 239/2/5
f 241/1/5 240/1/5 239/1/5
f 242/1/5 240/1/5 241/1/5
f 243/1/5 241/1/5 239/1/5
f 243/5/5 242/5/5 241/5/5
f 244/1/5 240/1/5 242/1/5
f 244/5/5 242/5/5 243/5/5
f 245/2/5 239/2/5 236/2/5
f 245/1/5 243/1/5 239/1/5
f 245/1/5 244/1/5 243/1/5
f 246/1/5 240/1/5 244/1/5
f 246/1/5 244/1/5 245/1/5
f 246/2/5 237/2/5 240/2/5
f 247/2/5 245/2/5 236/2/5
f 247/2/5 246/2/5 245/2/5
f 248/2/5 237/2/5 246/2/5
f 248/2/5 246/2/5 247/2/5
f 249/5/6 250/5/6 251/5/6
f 251/5/6 250/5/6 252/5/6
f 254/1/6 255/1/6 257/1/6
f 257/1/6 255/1/6 258/1/6
f 254/1/6 257/1/6 259/1/6
f 257/5/6 258/5/6 259/5/6
f 258/1/6 255/1/6 260/1/6
f 259/5/6 258/5/6 260/5/6
f 253/2/6 254/2/6 261/2/6
f 254/1/6 259/1/6 261/1/6
f 259/1/6 260/1/6 261/1/6
f 260/1/6 255/1/6 262/1/6
f 261/1/6 260/1/6 262/1/6
f 255/2/6 256/2/6 262/2/6
f 253/2/6 261/2/6 263/2/6
f 261/2/6 262/2/6 263/2/6
f 262/2/6 256/2/6 264/2/6
f 263/2/6 262/2/6 264/2/6
f 265/5/6 266/5/6 267/5/6
f 267/5/6 266/5/6 268/5/6
f 269/2/6 270/2/6 271/2/6
f 271/2/6 270/2/6 272/2/6
f 273/2/6 274/2/6 275/2/6
f 275/2/6 274/2/6 276/2/6
f 279/2/6 280/2/6 285/2/6
f 280/4/6 281/4/6 285/4/6
f 281/2/6 282/2/6 286/2/6
f 285/4/6 281/4/6 286/4/6
f 277/2/6 278/2/6 287/2/6
f 287/2/6 278/2/6 288/2/6
f 279/2/6 285/2/6 289/2/6
f 289/2/6 285/2/6 290/2/6
f 286/2/6 282/2/6 291/2/6
f 291/2/6 282/2/6 292/2/6
f 283/2/6 284/2/6 293/2/6
f 293/2/6 284/2/6 294/2/6
f 295/2/6 296/2/6 299/2/6
f 299/2/6 296/2/6 300/2/6
f 297/2/6 298/2/6 301/2/6
f 301/2/6 298/2/6 302/2/6
f 303/2/6 304/2/6 307/2/6
f 307/2/6 304/2/6 308/2/6
f 305/2/6 306/2/6 309/2/6
f 309/2/6 306/2/6 310/2/6
f 311/2/6 312/2/6 319/2/6
f 313/2/6 314/2/6 320/2/6
f 320/2/6 314/2/6 321/2/6
f 315/2/6 316/2/6 324/2/6
f 324/2/6 316/2/6 325/2/6
f 317/2/6 318/2/6 326/2/6
f 311/2/6 319/2/6 327/2/6
f 321/2/6 322/2/6 327/2/6
f 319/2/6 320/2/6 327/2/6
f 320/2/6 321/2/6 327/2/6
f 327/2/6 322/2/6 328/2/6
f 324/2/6 325/2/6 329/2/6
f 325/2/6 326/2/6 329/2/6
f 323/2/6 324/2/6 329/2/6
f 326/2/6 318/2/6 330/2/6
f 329/2/6 326/2/6 330/2/6
f 328/2/6 322/2/6 331/2/6
f 323/2/6 329/2/6 332/2/6
f 311/2/6 327/2/6 333/2/6
f 328/2/6 331/2/6 334/2/6
f 331/2/6 332/2/6 334/2/6
f 332/2/6 329/2/6 335/2/6
f 334/2/6 332/2/6 335/2/6
f 330/2/6 318/2/6 336/2/6
f 334/2/6 335/2/6 337/2/6
f 335/2/6 336/2/6 337/2/6
f 311/2/6 333/2/6 337/2/6
f 333/2/6 334/2/6 337/2/6
f 336/2/6 318/2/6 338/2/6
f 337/2/6 336/2/6 338/2/6
