# MagicaVoxel @ Ephtracy

# group
g bookshelf

# material
mtllib bookshelf.mtl
usemtl palette

# normals
vn -1 0 0
vn 1 0 0
vn 0 0 1
vn 0 0 -1
vn 0 -1 0
vn 0 1 0

# texcoords
vt 0.537109 0.5

# verts
v -15 12 12
v -15 12 -10
v -15 17 12
v -15 17 -10
v 13 13 11
v 13 13 5
v 13 13 4
v 13 13 -2
v 13 13 -3
v 13 13 -9
v 13 17 11
v 13 17 5
v 13 17 4
v 13 17 -2
v 13 17 -3
v 13 17 -9
v -14 13 11
v -14 13 5
v -14 13 4
v -14 13 -2
v -14 13 -3
v -14 13 -9
v -14 17 11
v -14 17 5
v -14 17 4
v -14 17 -2
v -14 17 -3
v -14 17 -9
v 14 12 12
v 14 12 -10
v 14 17 12
v 14 17 -10
v -15 12 12
v -15 17 12
v 14 12 12
v 14 17 12
v -14 13 5
v -14 17 5
v 13 13 5
v 13 17 5
v -14 13 -2
v -14 17 -2
v 13 13 -2
v 13 17 -2
v -14 13 -9
v -14 17 -9
v 13 13 -9
v 13 17 -9
v -14 13 11
v -14 17 11
v 13 13 11
v 13 17 11
v -14 13 4
v -14 17 4
v 13 13 4
v 13 17 4
v -14 13 -3
v -14 17 -3
v 13 13 -3
v 13 17 -3
v -15 12 -10
v -15 17 -10
v 14 12 -10
v 14 17 -10
v -15 12 12
v 14 12 12
v -15 12 -10
v 14 12 -10
v -14 13 11
v 13 13 11
v -14 13 5
v 13 13 5
v -14 13 4
v 13 13 4
v -14 13 -2
v 13 13 -2
v -14 13 -3
v 13 13 -3
v -14 13 -9
v 13 13 -9
v -15 17 12
v 14 17 12
v -14 17 11
v 13 17 11
v -14 17 5
v 13 17 5
v -14 17 4
v 13 17 4
v -14 17 -2
v 13 17 -2
v -14 17 -3
v 13 17 -3
v -14 17 -9
v 13 17 -9
v -15 17 -10
v 14 17 -10

# faces
f 3/1/1 2/1/1 1/1/1
f 4/1/1 2/1/1 3/1/1
f 11/1/1 6/1/1 5/1/1
f 12/1/1 6/1/1 11/1/1
f 13/1/1 8/1/1 7/1/1
f 14/1/1 8/1/1 13/1/1
f 15/1/1 10/1/1 9/1/1
f 16/1/1 10/1/1 15/1/1
f 17/1/2 18/1/2 23/1/2
f 23/1/2 18/1/2 24/1/2
f 19/1/2 20/1/2 25/1/2
f 25/1/2 20/1/2 26/1/2
f 21/1/2 22/1/2 27/1/2
f 27/1/2 22/1/2 28/1/2
f 29/1/2 30/1/2 31/1/2
f 31/1/2 30/1/2 32/1/2
f 35/1/3 34/1/3 33/1/3
f 36/1/3 34/1/3 35/1/3
f 39/1/3 38/1/3 37/1/3
f 40/1/3 38/1/3 39/1/3
f 43/1/3 42/1/3 41/1/3
f 44/1/3 42/1/3 43/1/3
f 47/1/3 46/1/3 45/1/3
f 48/1/3 46/1/3 47/1/3
f 49/1/4 50/1/4 51/1/4
f 51/1/4 50/1/4 52/1/4
f 53/1/4 54/1/4 55/1/4
f 55/1/4 54/1/4 56/1/4
f 57/1/4 58/1/4 59/1/4
f 59/1/4 58/1/4 60/1/4
f 61/1/4 62/1/4 63/1/4
f 63/1/4 62/1/4 64/1/4
f 67/1/5 66/1/5 65/1/5
f 68/1/5 66/1/5 67/1/5
f 69/1/6 70/1/6 71/1/6
f 71/1/6 70/1/6 72/1/6
f 73/1/6 74/1/6 75/1/6
f 75/1/6 74/1/6 76/1/6
f 77/1/6 78/1/6 79/1/6
f 79/1/6 78/1/6 80/1/6
f 81/1/6 82/1/6 83/1/6
f 83/1/6 82/1/6 84/1/6
f 81/1/6 83/1/6 85/1/6
f 84/1/6 82/1/6 86/1/6
f 81/1/6 85/1/6 87/1/6
f 85/1/6 86/1/6 87/1/6
f 86/1/6 82/1/6 88/1/6
f 87/1/6 86/1/6 88/1/6
f 81/1/6 87/1/6 89/1/6
f 88/1/6 82/1/6 90/1/6
f 81/1/6 89/1/6 91/1/6
f 89/1/6 90/1/6 91/1/6
f 90/1/6 82/1/6 92/1/6
f 91/1/6 90/1/6 92/1/6
f 81/1/6 91/1/6 93/1/6
f 92/1/6 82/1/6 94/1/6
f 81/1/6 93/1/6 95/1/6
f 93/1/6 94/1/6 95/1/6
f 94/1/6 82/1/6 96/1/6
f 95/1/6 94/1/6 96/1/6
